# xmcd CD database file
#
# Track frame offsets:
#	150
#	22799
#	48221
#	67736
#	86906
#	109686
#	128400
#	155381
#
# Disc length: 2408 seconds
#
# Revision: 0
# Processed by: cddbd v1.5.1PL0 Copyright (c) Steve Scherf et al.
# Submitted via: CDex 1.51
#
DISCID=51096608
DTITLE=spin - whirlwind
DYEAR=1977
DGENRE=Jazz
TTITLE0=tarantula
TTITLE1=baby's delight
TTITLE2=dance of the sea-gull
TTITLE3=telegraphcanyon-roadrunner
TTITLE4=super b
TTITLE5=yellow kites
TTITLE6=you're a clown
TTITLE7=t-ford two
EXTD=YEAR: 1977
EXTT0=
EXTT1=
EXTT2=
EXTT3=
EXTT4=
EXTT5=
EXTT6=
EXTT7=
PLAYORDER=
